<svg width="34" height="31" viewBox="0 0 34 31" fill="none" xmlns="http://www.w3.org/2000/svg">
<path d="M29.901 20.4785H3.96088V25.5288H29.901V20.4785Z" fill="#D8DFE6"/>
<path d="M29.1301 15.4294H4.15747V20.4797H30.0976V17.0036C29.7368 16.4953 29.4253 15.9541 29.1301 15.4294Z" fill="#E2E7EC"/>
<path d="M27.03 11.8784C26.9644 11.7964 26.9152 11.7145 26.8496 11.6325C26.8332 11.6161 26.8168 11.5833 26.7841 11.5505C26.6631 11.2258 26.4827 11.0126 26.3188 10.8159C26.1876 10.6519 26.0564 10.4879 25.9252 10.324H7.00309C6.21603 11.9637 5.36955 13.5837 4.18896 14.9775V15.4858H29.1288C28.4401 14.2724 27.8335 13.0262 27.03 11.8784Z" fill="#EBEFF3"/>
<path d="M24.7181 8.90443C23.8982 7.80583 23.2588 6.67443 22.8324 5.36267C22.8324 5.34627 22.8324 5.32987 22.816 5.31348H10.3215C10.1739 5.62502 9.99357 5.93656 9.76401 6.21531C8.63262 7.67465 7.81277 8.56009 6.94373 10.3474H25.8823C25.4888 9.88825 25.0952 9.41273 24.7181 8.90443Z" fill="#F5F7F9"/>
<path d="M24.8989 30.81L16.5364 25.5138L8.17391 30.81C5.22245 30.81 2.58253 29.2851 1.1068 26.7271C-0.368933 24.1692 -0.368933 21.1194 1.1068 18.5614L9.46928 4.08286C10.945 1.52492 13.5849 0 16.5364 0C19.4879 0 22.1278 1.52492 23.6035 4.08286L31.966 18.5614C33.4417 21.1194 33.4417 24.1692 31.966 26.7271C30.4902 29.2851 27.8339 30.81 24.8989 30.81ZM14.0604 6.75557L5.69796 21.2341C4.9437 22.5295 5.45201 23.6773 5.69796 24.1036C5.94392 24.5299 6.68179 25.5302 8.17391 25.5302H16.5364H24.8989C26.391 25.5302 27.1289 24.5299 27.3748 24.1036C27.6208 23.6773 28.1291 22.5295 27.3748 21.2341L19.0123 6.75557C18.2581 5.46021 17.0283 5.32903 16.5364 5.32903C16.0445 5.32903 14.7983 5.46021 14.0604 6.75557Z" fill="url(#paint0_linear_76_427)"/>
<path d="M8.1734 30.8086L24.2753 20.4785L6.96002 25.6436" fill="url(#paint1_linear_76_427)"/>
<path d="M11.4209 24.3177L1.50067 27.3348L9.09249 21.5466" fill="#D8DFE6"/>
<defs>
<linearGradient id="paint0_linear_76_427" x1="16.5364" y1="-5.58068" x2="16.5364" y2="28.1295" gradientUnits="userSpaceOnUse">
<stop stop-color="#FF845A"/>
<stop offset="0.2989" stop-color="#FD49AD"/>
<stop offset="0.6788" stop-color="#395DF0"/>
<stop offset="1" stop-color="#0CDAC4"/>
</linearGradient>
<linearGradient id="paint1_linear_76_427" x1="15.6169" y1="-5.58203" x2="15.6169" y2="28.1282" gradientUnits="userSpaceOnUse">
<stop stop-color="#FF845A"/>
<stop offset="0.2989" stop-color="#FD49AD"/>
<stop offset="0.6788" stop-color="#395DF0"/>
<stop offset="1" stop-color="#0CDAC4"/>
</linearGradient>
</defs>
</svg>
