<svg width="251" height="303" viewBox="0 0 251 303" fill="none" xmlns="http://www.w3.org/2000/svg">
<path d="M220.798 132.015L124.778 57.008L33.1887 132.015L3.72949 17.2762L47.33 17.2566L58.8908 59.4623L124.778 0L194.811 59.4623L202.379 17.2566L247.773 15.6584L220.798 132.015Z" fill="white"/>
<path d="M220.798 132.015L124.778 57.008L33.1887 132.015L3.72949 17.2762L47.33 17.2566L58.8908 59.4623L124.778 0L194.811 59.4623L202.379 17.2566L247.773 15.6584L220.798 132.015Z" fill="url(#paint0_linear_364:934)"/>
<path fill-rule="evenodd" clip-rule="evenodd" d="M177.579 149.637L125.753 109.777L73.9254 149.638L125.752 192.619L177.579 149.637ZM213.972 177.627L125.752 245.478L37.5328 177.628L0.506226 206.105L125.753 302.434L251 206.105L213.972 177.627Z" fill="white"/>
<path fill-rule="evenodd" clip-rule="evenodd" d="M177.579 149.637L125.753 109.777L73.9254 149.638L125.752 192.619L177.579 149.637ZM213.972 177.627L125.752 245.478L37.5328 177.628L0.506226 206.105L125.753 302.434L251 206.105L213.972 177.627Z" fill="url(#paint1_linear_364:934)"/>
<defs>
<linearGradient id="paint0_linear_364:934" x1="232.113" y1="30.8034" x2="129.08" y2="176.828" gradientUnits="userSpaceOnUse">
<stop stop-color="#FF00C7"/>
<stop offset="1" stop-color="#7B4DFF"/>
</linearGradient>
<linearGradient id="paint1_linear_364:934" x1="213.739" y1="227.293" x2="36.7236" y2="203.914" gradientUnits="userSpaceOnUse">
<stop stop-color="#FF00C7"/>
<stop offset="1" stop-color="#7B4DFF"/>
</linearGradient>
</defs>
</svg>
