<svg width="22" height="22" viewBox="0 0 22 22" fill="none" xmlns="http://www.w3.org/2000/svg">
<path d="M15.7123 15.7133H5.01592C4.64324 15.7141 4.27408 15.6412 3.92959 15.499C3.58511 15.3568 3.27209 15.148 3.00846 14.8846L0.820493 12.6965C0.29357 12.1652 -0.00144556 11.4468 5.7133e-06 10.6984V5.01623C-0.000742841 4.64352 0.0720722 4.27434 0.214276 3.92984C0.356481 3.58533 0.565278 3.27229 0.828698 3.00864L3.01666 0.820543C3.54843 0.293508 4.26724 -0.00150868 5.01592 5.80233e-06H15.7123V3.1454H5.97178C5.22235 3.14612 4.50382 3.44417 3.97389 3.97414C3.44396 4.5041 3.14593 5.22267 3.14521 5.97215V9.74116C3.14521 10.4911 3.44292 11.2104 3.97293 11.7409C4.50293 12.2715 5.22188 12.5699 5.97178 12.5706H15.7123V15.7133Z" fill="#007BFF"/>
<path d="M6.29041 6.2908H16.9882C17.7355 6.29008 18.4527 6.58505 18.9833 7.11134L21.1713 9.29944C21.7019 9.83007 22 10.5498 22 11.3002V16.9824C22 17.7328 21.7019 18.4525 21.1713 18.9832L18.9833 21.1713C18.4527 21.7019 17.7331 22 16.9827 22H6.29041V18.8546H16.031C16.7813 18.8546 17.501 18.5565 18.0316 18.0259C18.5622 17.4952 18.8603 16.7755 18.8603 16.0251V12.2575C18.8603 11.5071 18.5622 10.7874 18.0316 10.2567C17.501 9.7261 16.7813 9.42799 16.031 9.42799H6.29041V6.2908Z" fill="#007BFF"/>
</svg>
