<?xml version="1.0" encoding="utf-8"?>
<!-- Generator: Adobe Illustrator 25.3.1, SVG Export Plug-In . SVG Version: 6.00 Build 0)  -->
<svg version="1.1" xmlns="http://www.w3.org/2000/svg" xmlns:xlink="http://www.w3.org/1999/xlink" x="0px" y="0px"
	 viewBox="0 0 1636.7 1636.7" style="enable-background:new 0 0 1636.7 1636.7;" xml:space="preserve">
<style type="text/css">
	.st0{clip-path:url(#SVGID_2_);fill:url(#SVGID_3_);}
	.st1{clip-path:url(#SVGID_2_);}
	.st2{fill:url(#SVGID_4_);}
	.st3{fill:url(#SVGID_5_);}
	.st4{clip-path:url(#SVGID_7_);fill:#FFFFFF;}
	.st5{clip-path:url(#SVGID_7_);fill:url(#SVGID_8_);}
	.st6{clip-path:url(#SVGID_7_);fill:url(#SVGID_9_);}
	.st7{clip-path:url(#SVGID_7_);fill:url(#SVGID_10_);}
	.st8{clip-path:url(#SVGID_7_);fill:#0D3235;}
	.st9{clip-path:url(#SVGID_2_);fill:#0D3235;}
	.st10{fill:#091C23;}
	.st11{clip-path:url(#SVGID_12_);fill:url(#SVGID_13_);}
	.st12{clip-path:url(#SVGID_12_);}
	.st13{fill:url(#SVGID_14_);}
	.st14{fill:url(#SVGID_15_);}
	.st15{clip-path:url(#SVGID_17_);fill:#FFFFFF;}
	.st16{clip-path:url(#SVGID_17_);fill:url(#SVGID_18_);}
	.st17{clip-path:url(#SVGID_17_);fill:url(#SVGID_19_);}
	.st18{clip-path:url(#SVGID_17_);fill:url(#SVGID_20_);}
	.st19{clip-path:url(#SVGID_17_);fill:#0D3235;}
	.st20{clip-path:url(#SVGID_12_);fill:#0D3235;}
	.st21{fill:#FFFFFF;}
	.st22{clip-path:url(#SVGID_22_);fill:url(#SVGID_23_);}
	.st23{clip-path:url(#SVGID_22_);}
	.st24{fill:url(#SVGID_24_);}
	.st25{fill:url(#SVGID_25_);}
	.st26{clip-path:url(#SVGID_27_);fill:#FFFFFF;}
	.st27{clip-path:url(#SVGID_27_);fill:url(#SVGID_28_);}
	.st28{clip-path:url(#SVGID_27_);fill:url(#SVGID_29_);}
	.st29{clip-path:url(#SVGID_27_);fill:url(#SVGID_30_);}
	.st30{clip-path:url(#SVGID_27_);fill:#0D3235;}
	.st31{clip-path:url(#SVGID_22_);fill:#0D3235;}
	.st32{clip-path:url(#SVGID_32_);fill:#FFFFFF;}
	.st33{clip-path:url(#SVGID_32_);}
	.st34{fill:url(#SVGID_33_);}
	.st35{clip-path:url(#SVGID_35_);}
	.st36{clip-path:url(#SVGID_35_);fill:url(#SVGID_36_);}
	.st37{clip-path:url(#SVGID_35_);fill:url(#SVGID_37_);}
	.st38{clip-path:url(#SVGID_35_);fill:#FFFFFF;}
	.st39{clip-path:url(#SVGID_39_);}
	.st40{fill:url(#SVGID_40_);}
	.st41{clip-path:url(#SVGID_42_);fill:#FFFFFF;}
	.st42{clip-path:url(#SVGID_42_);fill:url(#SVGID_43_);}
	.st43{clip-path:url(#SVGID_42_);fill:url(#SVGID_44_);}
	.st44{clip-path:url(#SVGID_42_);}
	.st45{clip-path:url(#SVGID_46_);fill:url(#SVGID_47_);}
	.st46{clip-path:url(#SVGID_46_);}
	.st47{fill:url(#SVGID_48_);}
	.st48{fill:url(#SVGID_49_);}
	.st49{clip-path:url(#SVGID_51_);fill:#FFFFFF;}
	.st50{clip-path:url(#SVGID_51_);fill:url(#SVGID_52_);}
	.st51{clip-path:url(#SVGID_51_);fill:url(#SVGID_53_);}
	.st52{clip-path:url(#SVGID_51_);fill:url(#SVGID_54_);}
	.st53{clip-path:url(#SVGID_51_);fill:#0D3235;}
	.st54{clip-path:url(#SVGID_46_);fill:#0D3235;}
	.st55{clip-path:url(#SVGID_56_);fill:#FFFFFF;}
	.st56{clip-path:url(#SVGID_56_);}
	.st57{fill:url(#SVGID_57_);}
	.st58{clip-path:url(#SVGID_59_);}
	.st59{clip-path:url(#SVGID_59_);fill:url(#SVGID_60_);}
	.st60{clip-path:url(#SVGID_59_);fill:url(#SVGID_61_);}
	.st61{clip-path:url(#SVGID_59_);fill:#FFFFFF;}
	.st62{clip-path:url(#SVGID_63_);}
	.st63{fill:url(#SVGID_64_);}
	.st64{clip-path:url(#SVGID_66_);fill:#FFFFFF;}
	.st65{clip-path:url(#SVGID_66_);fill:url(#SVGID_67_);}
	.st66{clip-path:url(#SVGID_66_);fill:url(#SVGID_68_);}
	.st67{clip-path:url(#SVGID_66_);}
	.st68{clip-path:url(#SVGID_70_);fill:url(#SVGID_71_);}
	.st69{clip-path:url(#SVGID_70_);}
	.st70{fill:url(#SVGID_72_);}
	.st71{fill:url(#SVGID_73_);}
	.st72{clip-path:url(#SVGID_75_);fill:#FFFFFF;}
	.st73{clip-path:url(#SVGID_75_);fill:url(#SVGID_76_);}
	.st74{clip-path:url(#SVGID_75_);fill:url(#SVGID_77_);}
	.st75{clip-path:url(#SVGID_75_);fill:url(#SVGID_78_);}
	.st76{clip-path:url(#SVGID_75_);fill:#0D3235;}
	.st77{clip-path:url(#SVGID_70_);fill:#0D3235;}
	.st78{clip-path:url(#SVGID_80_);fill:url(#SVGID_81_);}
	.st79{clip-path:url(#SVGID_80_);}
	.st80{fill:url(#SVGID_82_);}
	.st81{fill:url(#SVGID_83_);}
	.st82{clip-path:url(#SVGID_85_);fill:#FFFFFF;}
	.st83{clip-path:url(#SVGID_85_);fill:url(#SVGID_86_);}
	.st84{clip-path:url(#SVGID_85_);fill:url(#SVGID_87_);}
	.st85{clip-path:url(#SVGID_85_);fill:url(#SVGID_88_);}
	.st86{clip-path:url(#SVGID_85_);fill:#0D3235;}
	.st87{clip-path:url(#SVGID_80_);fill:#0D3235;}
	.st88{clip-path:url(#SVGID_90_);fill:url(#SVGID_91_);}
	.st89{clip-path:url(#SVGID_90_);}
	.st90{fill:url(#SVGID_92_);}
	.st91{fill:url(#SVGID_93_);}
	.st92{clip-path:url(#SVGID_95_);fill:#FFFFFF;}
	.st93{clip-path:url(#SVGID_95_);fill:url(#SVGID_96_);}
	.st94{clip-path:url(#SVGID_95_);fill:url(#SVGID_97_);}
	.st95{clip-path:url(#SVGID_95_);fill:url(#SVGID_98_);}
	.st96{clip-path:url(#SVGID_95_);fill:#0D3235;}
	.st97{clip-path:url(#SVGID_90_);fill:#0D3235;}
	.st98{clip-path:url(#SVGID_100_);fill:url(#SVGID_101_);}
	.st99{clip-path:url(#SVGID_100_);}
	.st100{fill:url(#SVGID_102_);}
	.st101{fill:url(#SVGID_103_);}
	.st102{clip-path:url(#SVGID_105_);fill:#FFFFFF;}
	.st103{clip-path:url(#SVGID_105_);fill:url(#SVGID_106_);}
	.st104{clip-path:url(#SVGID_105_);fill:url(#SVGID_107_);}
	.st105{clip-path:url(#SVGID_105_);fill:url(#SVGID_108_);}
	.st106{clip-path:url(#SVGID_105_);fill:#0D3235;}
	.st107{clip-path:url(#SVGID_100_);fill:#0D3235;}
	.st108{clip-path:url(#SVGID_110_);fill:#FFFFFF;}
	.st109{clip-path:url(#SVGID_110_);}
	.st110{fill:url(#SVGID_111_);}
	.st111{clip-path:url(#SVGID_113_);}
	.st112{clip-path:url(#SVGID_113_);fill:url(#SVGID_114_);}
	.st113{clip-path:url(#SVGID_113_);fill:url(#SVGID_115_);}
	.st114{clip-path:url(#SVGID_113_);fill:#FFFFFF;}
	.st115{clip-path:url(#SVGID_117_);}
	.st116{fill:url(#SVGID_118_);}
	.st117{clip-path:url(#SVGID_120_);fill:#FFFFFF;}
	.st118{clip-path:url(#SVGID_120_);fill:url(#SVGID_121_);}
	.st119{clip-path:url(#SVGID_120_);fill:url(#SVGID_122_);}
	.st120{clip-path:url(#SVGID_120_);}
	.st121{display:none;}
	.st122{display:inline;}
	.st123{fill:#3F3F3F;}
	.st124{display:inline;fill:#091C23;}
</style>
<g id="Layer_1">
	<g>
		<defs>
			<circle id="SVGID_21_" cx="818.35" cy="818.35" r="540"/>
		</defs>
		<clipPath id="SVGID_2_">
			<use xlink:href="#SVGID_21_"  style="overflow:visible;"/>
		</clipPath>
		<linearGradient id="SVGID_3_" gradientUnits="userSpaceOnUse" x1="278.3505" y1="818.3505" x2="1358.3505" y2="818.3505">
			<stop  offset="0" style="stop-color:#2AEBA6"/>
			<stop  offset="1" style="stop-color:#00A05F"/>
		</linearGradient>
		<circle class="st0" cx="818.35" cy="818.35" r="540"/>
		<g class="st1">
			<linearGradient id="SVGID_4_" gradientUnits="userSpaceOnUse" x1="703.373" y1="996.6183" x2="1170.173" y2="1374.6255">
				<stop  offset="0" style="stop-color:#00BFCD"/>
				<stop  offset="0.0253" style="stop-color:#0EC2D0"/>
				<stop  offset="0.1381" style="stop-color:#46D0DB"/>
				<stop  offset="0.2544" style="stop-color:#77DDE4"/>
				<stop  offset="0.3717" style="stop-color:#A1E7ED"/>
				<stop  offset="0.4903" style="stop-color:#C3F0F3"/>
				<stop  offset="0.6107" style="stop-color:#DDF7F8"/>
				<stop  offset="0.7336" style="stop-color:#F0FBFC"/>
				<stop  offset="0.8604" style="stop-color:#FBFEFE"/>
				<stop  offset="0.9973" style="stop-color:#FFFFFF"/>
			</linearGradient>
			<path class="st2" d="M699.86,1130.16c-1.81,94.35,39,188.93,89.23,252.04l86.44,19.85l54.17-32.83c0,0-8.55-6.45-20.89-19.23
				c2.9,3,26.32-0.71,30.27-0.82c27.14-0.73,54.27-1.46,81.41-2.19c58.62-1.59,117.23-3.12,175.85-4.67
				c-76.51-3.24-145.87-45.43-205.63-93.32c-42.49-34.05-82.55-72.11-112.02-117.9c-60.93-94.66-63.73-214.92,2.6-306.57
				C881.29,824.52,704.41,893.33,699.86,1130.16z"/>
			<linearGradient id="SVGID_5_" gradientUnits="userSpaceOnUse" x1="703.373" y1="996.6183" x2="1170.173" y2="1374.6255">
				<stop  offset="0" style="stop-color:#005E61;stop-opacity:0.25"/>
				<stop  offset="0.0786" style="stop-color:#005E61;stop-opacity:0.2184"/>
				<stop  offset="0.6226" style="stop-color:#005E61;stop-opacity:0"/>
			</linearGradient>
			<path class="st3" d="M699.86,1130.16c-1.81,94.35,39,188.93,89.23,252.04l86.44,19.85l54.17-32.83c0,0-8.55-6.45-20.89-19.23
				c2.9,3,26.32-0.71,30.27-0.82c27.14-0.73,54.27-1.46,81.41-2.19c58.62-1.59,117.23-3.12,175.85-4.67
				c-76.51-3.24-145.87-45.43-205.63-93.32c-42.49-34.05-82.55-72.11-112.02-117.9c-60.93-94.66-63.73-214.92,2.6-306.57
				C881.29,824.52,704.41,893.33,699.86,1130.16z"/>
			<g>
				<defs>
					<path id="SVGID_26_" d="M470.44,1454.44l339.07-72.99c-62.87-65.5-101.5-154.44-101.5-252.4
						c0-201.34,163.64-351.54,364.56-364.56c107.96-7,192.03,39.29,192.03,39.29c-7.98-28.01-21.44-54.2-38.29-77.88
						c-42.39-59.55-100.26-98.71-167.1-127.74c-34.41-14.94-71.15-23.34-106.27-36.32c-16.76-6.19-33.34-13.21-48.04-23.3
						c-16.13-11.08-31.57-23.38-49.05-32.33c-9.77-5-19.87-9.19-30.9-9.19c-327.97,0-593.84,265.87-593.84,593.84"/>
				</defs>
				<clipPath id="SVGID_7_">
					<use xlink:href="#SVGID_26_"  style="overflow:visible;"/>
				</clipPath>
				<rect x="160.73" y="497.02" class="st4" width="1145.94" height="982.54"/>
				<linearGradient id="SVGID_8_" gradientUnits="userSpaceOnUse" x1="211.4187" y1="956.8858" x2="739.04" y2="956.8858">
					<stop  offset="0" style="stop-color:#00BFCD"/>
					<stop  offset="0.1194" style="stop-color:#0AC9C4;stop-opacity:0.8806"/>
					<stop  offset="0.3984" style="stop-color:#1CDCB3;stop-opacity:0.6016"/>
					<stop  offset="0.6875" style="stop-color:#26E7A9;stop-opacity:0.3125"/>
					<stop  offset="1" style="stop-color:#2AEBA6;stop-opacity:0"/>
				</linearGradient>
				<path class="st5" d="M211.42,1079.56l280.01,219.86c0,0-223.5-436.91,247.33-684.92c0.09-0.05,0.19-0.1,0.28-0.15
					C565.71,651.25,356.58,762.78,211.42,1079.56z"/>
				<linearGradient id="SVGID_9_" gradientUnits="userSpaceOnUse" x1="875.2416" y1="707.0112" x2="1260.796" y2="693.5474">
					<stop  offset="0" style="stop-color:#15AD73;stop-opacity:0.9"/>
					<stop  offset="0.0696" style="stop-color:#14B77B;stop-opacity:0.8566"/>
					<stop  offset="0.2404" style="stop-color:#13CD8C;stop-opacity:0.75"/>
					<stop  offset="0.4537" style="stop-color:#1FDC99;stop-opacity:0.5394"/>
					<stop  offset="0.716" style="stop-color:#27E7A3;stop-opacity:0.2804"/>
					<stop  offset="1" style="stop-color:#2AEBA6;stop-opacity:0"/>
				</linearGradient>
				<path class="st6" d="M1177.6,657.33c-79.33-74.67-153.94-79.21-170.26-79.26c-2.15-0.01-3.31,0.07-3.31,0.07
					s-26.2,2.25-50.91,20.2c-18.43,13.39-36.04,35.51-41.32,72.03c-12.37,85.48-32.23,160.87-32.23,160.87
					s199.41-98.67,385.01-27.46C1264.59,803.77,1267.41,741.86,1177.6,657.33z"/>
				<linearGradient id="SVGID_10_" gradientUnits="userSpaceOnUse" x1="475.2294" y1="1299.4224" x2="475.2294" y2="614.3492">
					<stop  offset="0" style="stop-color:#00AED2"/>
					<stop  offset="1" style="stop-color:#2AEBA6"/>
				</linearGradient>
				<path class="st7" d="M211.42,1079.56l280.01,219.86c0,0-223.5-436.91,247.33-684.92c0.09-0.05,0.19-0.1,0.28-0.15
					C565.71,651.25,356.58,762.78,211.42,1079.56z"/>
				<path class="st8" d="M738.76,614.5l83.45,20.6c25.47,6.29,51.85-6.18,63.17-29.85l3.66-7.65c-44.37,0.9-95.41,5.12-150,16.75
					C738.95,614.4,738.85,614.45,738.76,614.5"/>
			</g>
		</g>
		<path class="st9" d="M713.02,621.06c14.15-8.18,29.52-13.95,45.14-18.38c15.67-4.23,31.65-7.27,47.73-9.08
			c16.08-1.78,32.25-2.5,48.4-2.08c16.14,0.51,32.32,1.91,48.26,5.66c-16.02,3.2-31.83,5.4-47.61,7.45
			c-15.78,2.01-31.48,3.84-47.18,5.56l-47.07,5.33C744.97,617.34,729.32,619.45,713.02,621.06z"/>
	</g>
</g>
<g id="Layer_2" class="st121">
	<g class="st122">
		<rect x="1358.35" y="225.29" width="278.35" height="1222.17"/>
		
			<rect x="679.18" y="-679.18" transform="matrix(-1.836970e-16 1 -1 -1.836970e-16 957.5258 -679.1752)" width="278.35" height="1636.7"/>
		
			<rect x="679.18" y="679.18" transform="matrix(-1.836970e-16 1 -1 -1.836970e-16 2315.8762 679.1752)" width="278.35" height="1636.7"/>
		<rect y="199.95" width="278.35" height="1272.85"/>
	</g>
</g>
</svg>
