<svg width="743" height="250" viewBox="0 0 743 250" fill="none" xmlns="http://www.w3.org/2000/svg">
<path fill-rule="evenodd" clip-rule="evenodd" d="M55.764 30.8249C63.3256 61.8045 67.1623 93.6746 67.1226 125.758C67.1682 157.384 63.4436 188.803 56.0942 219.366L80.4109 233.405C89.5116 198.339 94.1225 162.167 94.0633 125.758C94.12 88.8935 89.3911 52.2718 80.0636 16.7955L55.764 30.8249ZM4.5973 60.366C8.71164 81.8342 10.7902 103.728 10.757 125.758C10.7955 147.323 8.80823 168.757 4.86675 189.79L29.4934 204.008C34.9744 178.379 37.7439 152.151 37.6977 125.758C37.7384 98.9032 34.867 72.2211 29.1931 46.1656L4.5973 60.366Z" fill="url(#paint0_radial_742_2848)"/>
<path fill-rule="evenodd" clip-rule="evenodd" d="M159.527 219.339C152.181 188.782 148.436 157.375 148.436 125.758C148.436 93.682 152.29 61.8219 159.849 30.8472L135.561 16.8247C126.249 52.2966 121.5 88.9041 121.5 125.758C121.5 162.156 126.132 198.313 135.218 233.374L159.527 219.339ZM210.742 189.769C206.788 168.743 204.776 147.317 204.776 125.758C204.776 103.732 206.876 81.8441 211.002 60.3804L186.425 46.191C180.747 72.2396 177.854 98.9113 177.854 125.758C177.854 152.141 180.648 178.356 186.134 203.977L210.742 189.769Z" fill="url(#paint1_radial_742_2848)"/>
<path fill-rule="evenodd" clip-rule="evenodd" d="M159.849 30.8472L135.561 16.8247C126.249 52.2966 121.5 88.9041 121.5 125.758C121.5 162.156 126.132 198.313 135.218 233.374L159.527 219.339C152.181 188.782 148.436 157.375 148.436 125.758C148.436 93.682 152.29 61.8219 159.849 30.8472ZM80.4109 233.405C89.5116 198.339 94.1225 162.167 94.0633 125.758C94.12 88.8935 89.3911 52.2718 80.0636 16.7955L55.764 30.8249C63.3256 61.8045 67.1623 93.6746 67.1226 125.758C67.1682 157.384 63.4436 188.803 56.0942 219.366L80.4109 233.405ZM4.5973 60.366L29.1931 46.1656C34.867 72.2211 37.7384 98.9032 37.6977 125.758C37.7439 152.151 34.9744 178.379 29.4934 204.008L4.86675 189.79C8.80823 168.757 10.7955 147.323 10.757 125.758C10.7902 103.728 8.71164 81.8342 4.5973 60.366ZM210.742 189.769L186.134 203.977C180.648 178.356 177.854 152.141 177.854 125.758C177.854 98.9113 180.747 72.2396 186.425 46.191L211.002 60.3804C206.876 81.8441 204.776 103.732 204.776 125.758C204.776 147.317 206.788 168.743 210.742 189.769Z" fill="url(#paint2_radial_742_2848)"/>
<path d="M346 180.928H365.012V68.7431H346V116.475H291.121V68.7431H272.109V180.928H291.121V133.195H346V180.928Z" fill="white"/>
<path d="M374.546 140.072C374.546 165.691 388.704 182.276 418.098 182.276C443.313 182.276 456.527 169.736 458.55 152.612L458.684 151.533H438.594L438.459 153.556C437.245 160.432 431.582 166.5 418.233 166.5C400.704 166.5 393.558 156.387 393.558 141.285H459.359V134.004C459.359 106.767 444.257 91.9351 418.098 91.9351C388.704 91.9351 374.546 108.52 374.546 133.869V140.072ZM393.828 128.071C395.446 115.666 402.727 107.711 417.424 107.711C430.638 107.711 438.728 113.914 440.347 125.644V128.071H393.828Z" fill="white"/>
<path d="M534.008 68.7431V104.879C529.558 98.8118 520.794 91.9351 505.827 91.9351C482.096 91.9351 467.264 108.79 467.264 132.117V141.69C467.264 165.421 481.961 182.276 506.097 182.276C521.064 182.276 529.828 175.264 534.008 169.062V180.928H552.211V68.7431H534.008ZM486.006 141.285V132.926C486.006 119.172 493.287 107.711 509.872 107.711C526.322 107.711 534.008 118.902 534.008 132.791V141.285C534.008 155.308 526.187 166.5 510.007 166.5C493.422 166.5 486.006 154.769 486.006 141.285Z" fill="white"/>
<path d="M629.347 178.77C629.347 191.31 626.65 196.434 614.785 196.434H567.592V212.21H617.616C640.673 212.21 647.55 201.153 647.55 180.523V93.2834H629.347V104.879C624.898 98.8118 616.133 91.9351 601.166 91.9351C577.435 91.9351 562.603 108.79 562.603 132.117V141.69C562.603 165.421 577.3 182.276 601.436 182.276C616.403 182.276 625.167 175.264 629.347 169.062V178.77ZM581.345 141.285V132.926C581.345 119.172 588.626 107.711 605.211 107.711C621.661 107.711 629.347 118.902 629.347 132.791V141.285C629.347 155.308 621.527 166.5 605.346 166.5C588.761 166.5 581.345 154.769 581.345 141.285Z" fill="white"/>
<path d="M657.942 140.072C657.942 165.691 672.1 182.276 701.494 182.276C726.709 182.276 739.923 169.736 741.946 152.612L742.08 151.533H721.99L721.855 153.556C720.641 160.432 714.978 166.5 701.629 166.5C684.1 166.5 676.954 156.387 676.954 141.285H742.755V134.004C742.755 106.767 727.653 91.9351 701.494 91.9351C672.1 91.9351 657.942 108.52 657.942 133.869V140.072ZM677.224 128.071C678.842 115.666 686.123 107.711 700.82 107.711C714.034 107.711 722.125 113.914 723.743 125.644V128.071H677.224Z" fill="white"/>
<defs>
<radialGradient id="paint0_radial_742_2848" cx="0" cy="0" r="1" gradientUnits="userSpaceOnUse" gradientTransform="translate(232.512 322.134) rotate(-125.848) scale(497.908 431.201)">
<stop stop-color="#9063CD"/>
<stop offset="0.607347" stop-color="#D62598"/>
</radialGradient>
<radialGradient id="paint1_radial_742_2848" cx="0" cy="0" r="1" gradientUnits="userSpaceOnUse" gradientTransform="translate(232.512 322.134) rotate(-125.848) scale(497.908 431.201)">
<stop stop-color="#9063CD"/>
<stop offset="0.607347" stop-color="#D62598"/>
</radialGradient>
<radialGradient id="paint2_radial_742_2848" cx="0" cy="0" r="1" gradientUnits="userSpaceOnUse" gradientTransform="translate(232.512 322.134) rotate(-125.848) scale(497.908 431.201)">
<stop stop-color="#9063CD"/>
<stop offset="0.607347" stop-color="#D62598"/>
</radialGradient>
</defs>
</svg>
