<svg width="38" height="28" viewBox="0 0 38 28" fill="none" xmlns="http://www.w3.org/2000/svg">
<path d="M7.08356 0.0611151C6.49645 -0.0203717 5.90067 -0.0203717 5.31356 0.0611151C3.98887 0.253881 2.76249 0.862904 1.81645 1.79779C0.87041 2.73267 0.255145 3.94357 0.0619803 5.25076C0.0206678 5.54001 -3.40008e-05 5.83175 2.93046e-05 6.12385V21.8727C-3.40008e-05 22.1648 0.0206678 22.4565 0.0619803 22.7457C0.254444 24.0536 0.869398 25.2653 1.8155 26.2008C2.76159 27.1364 3.98836 27.7459 5.31356 27.9389C5.90067 28.0204 6.49645 28.0204 7.08356 27.9389C8.40986 27.7478 9.63824 27.1396 10.586 26.2046C11.5338 25.2695 12.1504 24.0577 12.344 22.7492C12.3853 22.46 12.406 22.1682 12.4059 21.8761V6.12385C12.406 5.83175 12.3853 5.54001 12.344 5.25076C12.1504 3.94231 11.5338 2.73046 10.586 1.79544C9.63824 0.860412 8.40986 0.252152 7.08356 0.0611151V0.0611151ZM7.08356 1.83349C7.93633 2.00668 8.71893 2.42268 9.33457 3.03004C9.95021 3.6374 10.3719 4.40947 10.5474 5.25076H7.08356V1.83349ZM5.31356 1.83349V5.25076H1.85145C2.02645 4.40951 2.44773 3.63738 3.0631 3.02997C3.67848 2.42257 4.46093 2.00657 5.31356 1.83349V1.83349ZM1.76295 6.99694H5.31356V10.4998H1.76295V6.99694ZM1.76295 12.246H5.31356V15.7505H1.76295V12.246ZM1.76295 17.4967H5.31356V20.9996H1.76295V17.4967ZM5.31356 26.163C4.46093 25.9899 3.67848 25.5739 3.0631 24.9665C2.44773 24.3591 2.02645 23.587 1.85145 22.7457H5.31356V26.163ZM7.08356 26.163V22.7457H10.5474C10.3719 23.587 9.95021 24.3591 9.33457 24.9665C8.71893 25.5738 7.93633 25.9898 7.08356 26.163V26.163ZM10.6359 20.9996H7.08356V17.4967H10.6359V20.9996ZM10.6359 15.7505H7.08356V12.246H10.6359V15.7505ZM10.6359 10.4998H7.08356V6.99694H10.6359V10.4998ZM37.17 5.25076C36.9763 3.94231 36.3598 2.73046 35.412 1.79544C34.4642 0.860412 33.2359 0.252152 31.9096 0.0611151C31.3224 -0.0203717 30.7267 -0.0203717 30.1396 0.0611151C28.8136 0.252498 27.5856 0.860911 26.6382 1.79591C25.6907 2.7309 25.0744 3.94256 24.8809 5.25076C24.8396 5.54001 24.8189 5.83175 24.8189 6.12385V21.8727C24.8189 22.1648 24.8396 22.4565 24.8809 22.7457C25.0737 24.0546 25.6897 25.267 26.6372 26.2027C27.5847 27.1384 28.8131 27.7473 30.1396 27.9389C30.7267 28.0204 31.3224 28.0204 31.9096 27.9389C33.2364 27.7477 34.4651 27.1389 35.413 26.2032C36.3608 25.2675 36.977 24.0548 37.17 22.7457C37.2113 22.4565 37.232 22.1648 37.2319 21.8727V6.12385C37.232 5.83175 37.2113 5.54001 37.17 5.25076V5.25076ZM31.9096 1.83349C32.7623 2.00668 33.5449 2.42268 34.1606 3.03004C34.7762 3.6374 35.1979 4.40947 35.3734 5.25076H31.9096V1.83349ZM30.1396 1.83349V5.25076H26.6774C26.8524 4.40951 27.2737 3.63738 27.8891 3.02997C28.5045 2.42257 29.2869 2.00657 30.1396 1.83349V1.83349ZM26.5889 6.99694H30.1396V10.4998H26.5889V6.99694ZM26.5889 12.246H30.1396V15.7505H26.5889V12.246ZM26.5889 17.4967H30.1396V20.9996H26.5889V17.4967ZM30.1396 26.163C29.2869 25.9899 28.5045 25.5739 27.8891 24.9665C27.2737 24.3591 26.8524 23.587 26.6774 22.7457H30.1396V26.163ZM31.9096 26.163V22.7457H35.3734C35.1979 23.587 34.7762 24.3591 34.1606 24.9665C33.5449 25.5738 32.7623 25.9898 31.9096 26.163V26.163ZM35.4619 20.9996H31.9096V17.4967H35.4619V20.9996ZM35.4619 15.7505H31.9096V12.246H35.4619V15.7505ZM35.4619 10.4998H31.9096V6.99694H35.4619V10.4998ZM14.1795 9.62669H17.7195V13.1191H14.1795V9.62669ZM19.5019 9.62669H23.0419V13.1191H19.5019V9.62669ZM14.1795 14.8775H17.7195V18.3698H14.1795V14.8775ZM19.5019 14.8775H23.0419V18.3698H19.5019V14.8775Z" fill="url(#paint0_linear_1823_3734)"/>
<defs>
<linearGradient id="paint0_linear_1823_3734" x1="-5.47525" y1="29.9805" x2="26.7577" y2="-18.4842" gradientUnits="userSpaceOnUse">
<stop stop-color="#FF00FF"/>
<stop offset="0.462607" stop-color="#7A84FF"/>
<stop offset="1" stop-color="#05FAFF"/>
</linearGradient>
</defs>
</svg>
