<svg width="512" height="366" viewBox="0 0 512 366" fill="none" xmlns="http://www.w3.org/2000/svg">
<path d="M239 91.5L166.5 160.5L92.5 151L34 178L11.5 229.5L19.5 277L61.5 290.5L111.5 284.5L142.5 356L254.5 318L355 299L463.5 290.5L449 225L463.5 205.5L501.5 141V81.5L472.5 37.5L416.5 11.5H375L307 37.5L239 91.5Z" fill="white"/>
<path fill-rule="evenodd" clip-rule="evenodd" d="M456.801 226.077L456.807 226.039C465.005 221.543 473.499 211.203 479.299 204.141C480.868 202.232 482.24 200.562 483.355 199.312C494.021 185.522 501.749 169.692 506.061 152.801C532.46 59.3205 467.759 -10.6294 373.15 1.33413C304.644 13.4466 256.058 59.5755 207.437 105.737L207.437 105.737C191.952 120.438 176.465 135.142 160.329 148.752C153.75 145.75 144.688 144.49 137.294 143.463C133.855 142.985 130.777 142.557 128.478 142.027C92.6487 139.067 51.8748 148.253 26.6965 175.354C-13.3447 220.339 -12.4583 289.831 57.7357 299.689C74.2085 302.634 91.088 302.051 107.268 298.014C107.728 300.176 108.615 302.249 109.502 304.319C110.053 305.608 110.604 306.896 111.052 308.204C113.848 314.939 115.946 321.997 118.043 329.056C121.098 339.335 124.153 349.614 129.364 358.896C131.089 361.15 133.39 362.218 135.759 362.382C137.234 364.01 139.297 365.11 141.874 365.214C194.985 342.031 250.761 325.507 307.929 316.017C339.968 309.948 372.056 306.966 404.344 303.965C422.712 302.258 441.145 300.545 459.669 298.255C469.101 298.462 472.599 290.169 470.313 284.135C471.251 282.401 471.646 280.277 471.207 277.837C469.585 271.062 467.581 264.377 465.581 257.705C465.248 256.592 464.914 255.48 464.583 254.368C464.071 252.602 463.552 250.836 463.034 249.068C460.8 241.46 458.56 233.829 456.801 226.077ZM125.701 291.931C136.991 288.032 150.108 282.551 145.904 271.489C144.767 269.12 142.747 267.291 140.276 266.395C137.805 265.5 135.081 265.608 132.689 266.698C101.255 283.453 56.9714 289.862 28.1613 264.928C8.78168 240.696 25.8422 204.012 45.2524 184.845C71.3177 162.61 107.826 158.013 140.933 164.25C135.637 168.227 130.252 172.052 124.755 175.69C113.89 182.954 124.542 199.007 135.437 192.354C165.872 173.212 191.732 148.313 217.61 123.396L217.61 123.396L217.61 123.396L217.61 123.396C233.9 107.711 250.196 92.0198 267.645 77.7541C307.137 44.3051 358.439 13.2976 412.123 21.2326C438.888 26.7261 467.668 38.8422 480.333 64.6614C501.636 103.756 492.602 155.822 465.714 190.065C460.302 197.08 454.023 203.383 447.029 208.823C444.388 208.036 441.349 207.768 438.478 207.516L438.477 207.516L438.477 207.516L438.476 207.515C437.38 207.419 436.309 207.325 435.294 207.204C444.046 192.542 448.553 169.435 448.077 159.607C449.115 146.911 430.07 145.049 428.727 157.684C428.404 165.393 427.311 173.051 425.462 180.543C423.325 188.203 419.648 195.347 414.658 201.54C412.989 202.173 411.522 203.244 410.411 204.641C410.066 205.075 409.759 205.536 409.493 206.017C402.027 205.887 394.56 205.924 387.099 206.128C392.798 193.207 395.95 177.939 394.543 171.509C393.733 163.541 392.106 155.676 389.69 148.04C385.692 135.893 367.473 141.723 371.074 153.93C377.447 171.421 375.631 192.631 363.47 207.336C348.97 208.423 334.513 210.143 320.14 212.496C302.307 216.178 284.746 221.083 267.586 227.175C265.148 227.988 263.119 229.713 261.925 231.989C260.73 234.265 260.461 236.914 261.176 239.383C261.971 241.837 263.69 243.885 265.969 245.093C268.248 246.301 270.908 246.574 273.384 245.853C277.162 244.711 280.924 243.531 284.684 242.352L284.686 242.351L284.687 242.351C293.989 239.433 303.278 236.52 312.754 234.195C330.629 229.989 347.967 228.162 366.07 227.071C367.309 227.25 368.535 227.169 369.741 226.86C374.089 226.622 378.485 226.419 382.948 226.229C401.016 224.743 419.063 225.752 437.03 226.933C437.212 231.558 438.854 236.797 440.344 241.551C441.221 244.346 442.044 246.974 442.488 249.21C444.032 254.338 445.438 259.511 446.843 264.682C448.153 269.505 449.463 274.326 450.884 279.105C434.756 280.988 418.573 282.576 402.384 284.164C361.266 288.198 320.105 292.237 279.699 301.124C250.019 307.129 220.744 314.988 192.047 324.654L191.967 324.679L191.967 324.679C175.619 329.91 159.102 335.194 144.09 343.553C141.784 337.288 139.741 330.904 137.698 324.52L137.698 324.52L137.697 324.519L137.697 324.518L137.697 324.518L137.697 324.517L137.696 324.517C134.155 313.451 130.612 302.385 125.701 291.931ZM175.758 284.854C166.999 288.265 154.143 293.271 160.278 304.236C166.067 311.788 173.844 307.691 181.404 303.707L181.405 303.707C184.966 301.831 188.479 299.98 191.714 299.384C200.599 295.853 209.666 292.797 218.876 290.228C224.74 288.685 230.637 287.237 236.519 285.793L236.52 285.792L236.526 285.791L236.533 285.789C238.788 285.236 241.042 284.682 243.291 284.124C255.407 280.34 249.669 261.845 237.461 265.569C217.226 269.96 197.408 276.086 178.225 283.88C177.459 284.192 176.629 284.514 175.76 284.853L175.758 284.854Z" fill="#171923"/>
</svg>
