<svg width="32" height="32" viewBox="0 0 32 32" fill="none" xmlns="http://www.w3.org/2000/svg">
<path d="M9.03966 10.0388V2.04285C5.68086 3.72434 3.04402 6.56453 1.61621 10.0388H9.03966Z" fill="#E8E8E8"/>
<path d="M23.4401 13.4714H12.4744V18.3581C16.3667 18.3577 20.0996 16.8115 22.8521 14.0594L23.4401 13.4714Z" fill="#E8E8E8"/>
<path d="M12.4744 10.0387H23.6529C25.7136 10.0393 27.6902 9.22165 29.1482 7.76539V7.76539C27.4427 5.01069 24.9178 2.85877 21.9277 1.61127C18.9375 0.363766 15.632 0.0832301 12.4744 0.808986V10.0387Z" fill="#E8E8E8"/>
<path d="M9.03954 13.4714H0.655093C0.398823 15.0902 0.398823 16.7393 0.655093 18.3581H9.03954V13.4714Z" fill="#E8E8E8"/>
<path d="M9.03966 21.7898H1.61621C3.04429 25.2641 5.68101 28.1046 9.03966 29.7868V21.7898Z" fill="#E8E8E8"/>
<path d="M26.1929 15.5763L24.2781 17.4911C22.9149 18.8546 21.2963 19.936 19.515 20.6736C17.7336 21.4112 15.8243 21.7905 13.8962 21.7898H12.4744V31.0205C13.4627 31.2474 14.4709 31.3769 15.4845 31.407C24.1262 31.6695 31.4391 24.6066 31.4629 15.9576C31.465 15.1251 31.4008 14.2937 31.2707 13.4714V13.4714C29.366 13.4725 27.5397 14.2296 26.1929 15.5763V15.5763Z" fill="#E8E8E8"/>
</svg>
