<svg width="128" height="128" viewBox="0 0 128 128" fill="none" xmlns="http://www.w3.org/2000/svg">
<path d="M111.319 20.922C110.203 19.6971 108.298 19.7017 107.127 20.8733L102.338 25.662C101.169 26.8307 101.173 28.7189 102.269 29.9566C110.284 39.0135 115.2 50.9332 115.2 64C115.2 77.5791 109.806 90.602 100.204 100.204C90.602 109.806 77.5791 115.2 64 115.2C50.4209 115.2 37.398 109.806 27.7961 100.204C18.1943 90.602 12.8 77.5791 12.8 64C12.8 38.2763 31.7438 17.0246 56.4761 13.4C57.0708 13.3129 57.6 13.7786 57.6 14.3797V26.176C39.424 29.248 25.6 44.992 25.6 64C25.6 74.1843 29.6457 83.9515 36.8471 91.1529C44.0485 98.3543 53.8157 102.4 64 102.4C74.1843 102.4 83.9515 98.3543 91.1529 91.1529C98.3543 83.9515 102.4 74.1843 102.4 64C102.4 54.4528 98.9372 45.7326 93.1727 39.0469C92.0943 37.7961 90.1922 37.8078 89.0244 38.9756L86.624 41.376L84.2187 43.7813C83.0529 44.9471 83.062 46.8258 84.0802 48.1227C87.5253 52.5106 89.6 58.0248 89.6 64C89.6 70.7895 86.9029 77.301 82.1019 82.1019C77.301 86.9029 70.7895 89.6 64 89.6C57.2105 89.6 50.699 86.9029 45.8981 82.1019C41.0971 77.301 38.4 70.7895 38.4 64C38.4 52.5492 45.9801 42.9343 56.3552 39.6553C56.9798 39.4579 57.6 39.9362 57.6 40.5913V52.992C53.76 55.232 51.2 59.264 51.2 64C51.2 67.3948 52.5486 70.6505 54.949 73.051C57.3495 75.4514 60.6052 76.8 64 76.8C67.3948 76.8 70.6505 75.4514 73.051 73.051C75.4514 70.6505 76.8 67.3948 76.8 64C76.8 59.264 74.24 55.168 70.4 52.992V3C70.4 1.34315 69.0569 0 67.4 0H64C55.5954 0 47.2731 1.65541 39.5083 4.87171C31.7434 8.08801 24.6881 12.8022 18.7452 18.7452C6.74284 30.7475 0 47.0261 0 64C0 80.9739 6.74284 97.2525 18.7452 109.255C24.6881 115.198 31.7434 119.912 39.5083 123.128C47.2731 126.345 55.5954 128 64 128C80.9739 128 97.2525 121.257 109.255 109.255C121.257 97.2525 128 80.9739 128 64C128 47.4142 121.68 32.2954 111.319 20.922Z" fill="url(#paint0_linear_503:213)"/>
<defs>
<linearGradient id="paint0_linear_503:213" x1="106.523" y1="0.134685" x2="-7.18831" y2="114.681" gradientUnits="userSpaceOnUse">
<stop offset="0.0416667" stop-color="#00F299"/>
<stop offset="0.489583" stop-color="#6787CB"/>
<stop offset="0.59375" stop-color="#7F6ED7"/>
<stop offset="0.640625" stop-color="#8A63DC"/>
<stop offset="0.947917" stop-color="#D119FF"/>
</linearGradient>
</defs>
</svg>
