<svg id="Layer_1" data-name="Layer 1" xmlns="http://www.w3.org/2000/svg" viewBox="0 0 1394.82 1394.82"><path d="M373.19,1359.48q4.24,4.24,8.85,8a120.67,120.67,0,0,0,76.47,27.32h477.8a120.67,120.67,0,0,0,76.47-27.32c3.06-2.52,6-5.19,8.85-8l337.85-337.85a120.66,120.66,0,0,0,35.34-85.32V458.51a120.66,120.66,0,0,0-35.34-85.32L1021.63,35.34c-2.83-2.83-5.79-5.5-8.85-8A120.63,120.63,0,0,0,936.31,0H458.51A120.63,120.63,0,0,0,382,27.33a119.32,119.32,0,0,0-8.85,8L35.34,373.19A120.66,120.66,0,0,0,0,458.51v477.8a120.66,120.66,0,0,0,35.34,85.32ZM184.31,697.66V296.6A112.29,112.29,0,0,1,296.6,184.31h801.62A112.3,112.3,0,0,1,1210.51,296.6v801.62a112.3,112.3,0,0,1-112.29,112.29H296.6a112.29,112.29,0,0,1-112.29-112.29Z"/></svg>